<svg fill="none" height="21" width="20" xmlns="http://www.w3.org/2000/svg">
  <title>Catch</title>
  <g clip-path="url(#a)">
    <path
      d="M.118 6.254v8.494c0 4.907 5.589 7.92 9.891 5.268l6.89-4.247a6.142 6.142 0 0 0 0-10.536L10.009.986C5.707-1.665.118 1.347.118 6.254Z"
      fill="#0182FF"
    />
    <path
      d="M.118 6.254v8.494c0 4.907 5.589 7.92 9.891 5.268l6.89-4.247a6.142 6.142 0 0 0 0-10.536L10.009.986C5.707-1.665.118 1.347.118 6.254Z"
      fill="url(#b)"
    />
    <path
      d="M9.58 4.883c.717 0 1.417.16 2.06.467.679.32.989 1.123.704 1.823a1.4 1.4 0 0 1-1.77.797l-.133-.056a1.988 1.988 0 0 0-.861-.196c-1.255 0-2.337 1.214-2.337 2.782 0 1.569 1.082 2.783 2.337 2.783.235 0 .464-.042.683-.122l.162-.067a1.4 1.4 0 0 1 1.835.705c.32.699.03 1.528-.656 1.867a4.771 4.771 0 0 1-2.024.452c-2.877 0-5.145-2.546-5.145-5.618 0-3.07 2.267-5.617 5.145-5.617Z"
      fill="#fff"
    />
  </g>
  <defs>
    <linearGradient
      gradientUnits="userSpaceOnUse"
      id="b"
      x1="-6.191"
      x2="5.191"
      y1="5.505"
      y2="25.939"
    >
      <stop stop-color="#6FB9FF" />
      <stop offset="1" stop-color="#0182FF" />
    </linearGradient>
    <clipPath id="a"><path d="M0 0h20v21H0z" fill="#fff" /></clipPath>
  </defs>
</svg>
